<?xml version="1.0" encoding="iso-8859-1"?>
<!-- Generator: Adobe Illustrator 19.0.0, SVG Export Plug-In . SVG Version: 6.00 Build 0)  -->
<svg version="1.1" id="Capa_1" xmlns="http://www.w3.org/2000/svg" xmlns:xlink="http://www.w3.org/1999/xlink" x="0px" y="0px"
	 viewBox="0 0 512.043 512.043" style="enable-background:new 0 0 512.043 512.043;" xml:space="preserve">
<path style="fill:#CDD6E0;" d="M490.688,512H21.355c-11.787,0-21.333-9.547-21.333-21.333V148.693
	c0-11.776,9.547-21.333,21.333-21.333h469.333c11.776,0,21.333,9.557,21.333,21.333v341.973
	C512.021,502.453,502.464,512,490.688,512"/>
<path style="fill:#F2F2F2;" d="M409.557,512H102.485V21.333C102.485,9.557,112.043,0,123.819,0h264.395
	c11.776,0,21.333,9.557,21.333,21.333V512H409.557z"/>
<g>
	<rect x="298.379" y="55.637" style="fill:#84DBFF;" width="54.805" height="54.805"/>
	<rect x="298.379" y="159.179" style="fill:#84DBFF;" width="54.805" height="54.805"/>
	<rect x="298.379" y="262.72" style="fill:#84DBFF;" width="54.805" height="54.795"/>
	<rect x="158.859" y="55.637" style="fill:#84DBFF;" width="54.805" height="54.805"/>
	<rect x="158.859" y="159.179" style="fill:#84DBFF;" width="54.805" height="54.805"/>
	<rect x="158.859" y="262.72" style="fill:#84DBFF;" width="54.805" height="54.795"/>
</g>
<rect x="186.784" y="373.163" style="fill:#40596B;" width="69.237" height="138.88"/>
<rect x="256.021" y="373.163" style="fill:#334A5E;" width="69.237" height="138.88"/>
<g>
	<rect x="433.387" y="179.04" style="fill:#ACB3BA;" width="54.795" height="54.795"/>
	<rect x="433.387" y="294.059" style="fill:#ACB3BA;" width="54.795" height="54.795"/>
	<rect x="433.387" y="405.547" style="fill:#ACB3BA;" width="54.795" height="54.795"/>
	<rect x="23.861" y="179.04" style="fill:#ACB3BA;" width="54.795" height="54.795"/>
	<rect x="23.861" y="294.059" style="fill:#ACB3BA;" width="54.795" height="54.795"/>
	<rect x="23.861" y="405.547" style="fill:#ACB3BA;" width="54.795" height="54.795"/>
</g>
<g>
</g>
<g>
</g>
<g>
</g>
<g>
</g>
<g>
</g>
<g>
</g>
<g>
</g>
<g>
</g>
<g>
</g>
<g>
</g>
<g>
</g>
<g>
</g>
<g>
</g>
<g>
</g>
<g>
</g>
</svg>
