<svg id="Capa_1" enable-background="new 0 0 510 510" height="512" viewBox="0 0 510 510" width="512" xmlns="http://www.w3.org/2000/svg"><g><path d="m114.269 380h-39.269c-23.991 0-43.657 18.869-44.934 42.547-17.495 6.173-30.066 22.872-30.066 42.453v45h120.769z" fill="#a5ffb4"/><path d="m479.934 422.547c-1.277-23.678-20.943-42.547-44.934-42.547h-39.269l-6.5 130h120.769v-45c0-19.581-12.571-36.28-30.066-42.453z" fill="#00b5bc"/><path d="m255 0 47.5 510h-212.5v-510z" fill="#edf5ff"/><path d="m255 0h165v510h-165z" fill="#d5e8fe"/><path d="m255 330 22.5 180h-97.5v-180z" fill="#64e1dc"/><path d="m255 330h75v180h-75z" fill="#4bb9ec"/><path d="m330 330-70.85 19.55-4.15-1.03v-93.52c41.35 0 75 33.64 75 75z" fill="#ff415b"/><path d="m255 255v93.52l-75-18.52c0-41.36 33.65-75 75-75z" fill="#ff7c48"/><path d="m150 60h30v30h-30z" fill="#00ddc1"/><path d="m330 60h30v30h-30z" fill="#4bb9ec"/><path d="m150 120h30v30h-30z" fill="#00ddc1"/><path d="m330 120h30v30h-30z" fill="#4bb9ec"/><path d="m150 180h30v30h-30z" fill="#00ddc1"/><path d="m210 180h30v30h-30z" fill="#00ddc1"/><path d="m270 180h30v30h-30z" fill="#4bb9ec"/><path d="m330 180h30v30h-30z" fill="#4bb9ec"/><path d="m150 240h30v30h-30z" fill="#00ddc1"/><path d="m330 240h30v30h-30z" fill="#4bb9ec"/><path d="m300 60v90h-30v-30h-15v-30h15v-30z" fill="#ff415b"/><path d="m255 90v30h-15v30h-30v-90h30v30z" fill="#ff7c48"/><path d="m255 330h165v30h-165z" fill="#ef9b14"/><path d="m90 330h165v30h-165z" fill="#ffb01c"/></g></svg>